<svg version="1.1" id="Layer_1" xmlns="http://www.w3.org/2000/svg" xmlns:xlink="http://www.w3.org/1999/xlink" x="0px" y="0px"
	 width="100%" viewBox="0 0 1000 1000" enable-background="new 0 0 1000 1000" xml:space="preserve">
<path fill="#f2f2f2" opacity="1.000000" stroke="none" 
	d="
M722.848755,791.176025 
	C655.804932,753.750854 589.102417,716.461670 522.398132,679.175720 
	C516.453186,675.852661 510.408691,672.695496 504.586975,669.169800 
	C502.112488,667.671143 500.248016,667.816406 497.827057,669.176270 
	C462.176880,689.201599 426.482635,709.148499 390.795197,729.107605 
	C340.883728,757.021729 290.969666,784.931274 241.052216,812.834778 
	C240.206329,813.307617 239.303680,813.678894 237.916992,814.341553 
	C237.916992,704.409973 237.916992,594.924500 237.916992,485.162537 
	C413.294525,485.162537 588.867249,485.162537 764.776733,485.162537 
	C764.776733,594.599609 764.776733,704.157288 764.776733,814.648743 
	C750.744507,806.774841 736.967102,799.043884 722.848755,791.176025 
z"/>
<path fill="#f2f2f2" opacity="1.000000" stroke="none" 
	d="
M393.000000,284.999451 
	C341.021851,284.999451 289.543701,284.999451 237.784363,284.999451 
	C237.784363,261.305481 237.784363,237.898468 237.784363,214.245483 
	C413.291687,214.245483 588.891174,214.245483 764.769775,214.245483 
	C764.769775,237.651764 764.769775,261.054077 764.769775,284.999451 
	C641.033386,284.999451 517.266724,284.999451 393.000000,284.999451 
z"/>
<path fill="#f2f2f2" opacity="1.000000" stroke="none" 
	d="
M506.999878,420.197083 
	C417.059784,420.197083 327.619690,420.197083 237.841263,420.197083 
	C237.841263,396.701935 237.841263,373.488068 237.841263,349.893921 
	C413.295593,349.893921 588.802490,349.893921 764.679199,349.893921 
	C764.679199,372.994049 764.679199,396.348572 764.679199,420.197083 
	C678.969910,420.197083 593.234924,420.197083 506.999878,420.197083 
z"/>
</svg>